<svg xmlns="http://www.w3.org/2000/svg" version="1.1" xmlns:xlink="http://www.w3.org/1999/xlink" xmlns:svgjs="http://svgjs.com/svgjs" width="1920" height="1080" preserveAspectRatio="none" viewBox="0 0 1920 1080"><g mask="url(&quot;#SvgjsMask1520&quot;)" fill="none"><rect width="1920" height="1080" x="0" y="0" fill="rgba(0, 37, 87, 1)"></rect><path d="M380.04 641.33a5.6 5.6 0 1 0 10.35-4.28 5.6 5.6 0 1 0-10.35 4.28zM394.83 635.21a5.6 5.6 0 1 0 10.35-4.28 5.6 5.6 0 1 0-10.35 4.28zM409.61 629.09a5.6 5.6 0 1 0 10.35-4.28 5.6 5.6 0 1 0-10.35 4.28zM424.39 622.97a5.6 5.6 0 1 0 10.35-4.28 5.6 5.6 0 1 0-10.35 4.28zM356.6 668.36a5.6 5.6 0 1 0 10.35-4.29 5.6 5.6 0 1 0-10.35 4.29zM371.38 662.23a5.6 5.6 0 1 0 10.35-4.28 5.6 5.6 0 1 0-10.35 4.28zM386.16 656.11a5.6 5.6 0 1 0 10.35-4.28 5.6 5.6 0 1 0-10.35 4.28zM400.95 649.99a5.6 5.6 0 1 0 10.35-4.28 5.6 5.6 0 1 0-10.35 4.28z" stroke="#e73635" stroke-width="2.08" stroke-dasharray="3, 2"></path><path d="M599.16 1063.58 L571.12 1153.2L542.4331918649475 1065.6831918649473z" stroke="#e73635" stroke-width="1" stroke-dasharray="3, 2"></path><rect width="266.88" height="266.88" clip-path="url(&quot;#SvgjsClipPath1521&quot;)" x="587.61" y="124.49" fill="url(#SvgjsPattern1522)" transform="rotate(0.48, 721.05, 257.93)"></rect><path d="M1031.16 799.79a5.6 5.6 0 1 0-7.97-7.87 5.6 5.6 0 1 0 7.97 7.87zM1019.78 788.55a5.6 5.6 0 1 0-7.97-7.87 5.6 5.6 0 1 0 7.97 7.87zM1008.39 777.31a5.6 5.6 0 1 0-7.97-7.87 5.6 5.6 0 1 0 7.97 7.87zM997 766.07a5.6 5.6 0 1 0-7.97-7.87 5.6 5.6 0 1 0 7.97 7.87zM1065.18 810.88a5.6 5.6 0 1 0-7.97-7.86 5.6 5.6 0 1 0 7.97 7.86zM1053.79 799.64a5.6 5.6 0 1 0-7.97-7.86 5.6 5.6 0 1 0 7.97 7.86zM1042.4 788.4a5.6 5.6 0 1 0-7.97-7.87 5.6 5.6 0 1 0 7.97 7.87zM1031.02 777.16a5.6 5.6 0 1 0-7.97-7.87 5.6 5.6 0 1 0 7.97 7.87z" stroke="#e73635" stroke-width="2.78" stroke-dasharray="3, 3"></path><path d="M1241.93 60.42L1232.24 52.04 1238.29 40.75 1228.61 32.37 1234.66 21.08 1224.98 12.7 1231.03 1.41M1249.8 58.96L1240.11 50.58 1246.16 39.29 1236.48 30.92 1242.53 19.63 1232.84 11.25 1238.89-0.04" stroke="#e73635" stroke-width="2.68" stroke-dasharray="2, 2"></path><rect width="670.72" height="670.72" clip-path="url(&quot;#SvgjsClipPath1523&quot;)" x="1349.61" y="252.97" fill="url(#SvgjsPattern1524)" transform="rotate(49.96, 1684.97, 588.33)"></rect><rect width="102" height="102" clip-path="url(&quot;#SvgjsClipPath1525&quot;)" x="666.4" y="354.1" fill="url(#SvgjsPattern1526)" transform="rotate(133.82, 717.4, 405.1)"></rect><rect width="132" height="132" clip-path="url(&quot;#SvgjsClipPath1527&quot;)" x="138.74" y="541.87" fill="url(#SvgjsPattern1528)" transform="rotate(204.61, 204.74, 607.87)"></rect></g><defs><mask id="SvgjsMask1520"><rect width="1920" height="1080" fill="#ffffff"></rect></mask><pattern x="0" y="0" width="8.34" height="8.34" patternUnits="userSpaceOnUse" id="SvgjsPattern1522"><path d="M4.17 1L4.17 7.34M1 4.17L7.34 4.17" stroke="#d3b714" fill="none" stroke-width="1.37"></path></pattern><clipPath id="SvgjsClipPath1521"><circle r="66.72" cx="721.05" cy="257.93"></circle></clipPath><pattern x="0" y="0" width="10.48" height="10.48" patternUnits="userSpaceOnUse" id="SvgjsPattern1524"><path d="M5.24 1L5.24 9.48M1 5.24L9.48 5.24" stroke="#e73635" fill="none" stroke-width="1"></path></pattern><clipPath id="SvgjsClipPath1523"><circle r="167.68" cx="1684.97" cy="588.33"></circle></clipPath><pattern x="0" y="0" width="102" height="10.2" patternUnits="userSpaceOnUse" id="SvgjsPattern1526"><rect width="102" height="5.1" x="0" y="0" fill="#d3b714"></rect><rect width="102" height="5.1" x="0" y="5.1" fill="rgba(0, 0, 0, 0)"></rect></pattern><clipPath id="SvgjsClipPath1525"><circle r="25.5" cx="717.4" cy="405.1"></circle></clipPath><pattern x="0" y="0" width="6" height="6" patternUnits="userSpaceOnUse" id="SvgjsPattern1528"><path d="M0 6L3 0L6 6" stroke="#e73635" fill="none"></path></pattern><clipPath id="SvgjsClipPath1527"><circle r="33" cx="204.74" cy="607.87"></circle></clipPath></defs></svg>