<svg xmlns="http://www.w3.org/2000/svg" viewBox="0 0 24 24"><path d="M19.039,19.043H16.078V14.4c0-1.106-.023-2.53-1.544-2.53-1.544,0-1.78,1.2-1.78,2.449v4.722H9.792V9.5h2.845v1.3h.039a3.12,3.12,0,0,1,2.808-1.542c3,0,3.556,1.975,3.556,4.546v5.238ZM6.447,8.194A1.72,1.72,0,1,1,8.168,6.473,1.719,1.719,0,0,1,6.447,8.194ZM7.932,19.043H4.963V9.5H7.932ZM20.521,2H3.476A1.458,1.458,0,0,0,2,3.441V20.559A1.458,1.458,0,0,0,3.476,22H20.518A1.463,1.463,0,0,0,22,20.559V3.441A1.464,1.464,0,0,0,20.518,2Z"/></svg>