<svg xmlns="http://www.w3.org/2000/svg" viewBox="0 0 24 24"><path d="M22.459,5.5a8.763,8.763,0,0,1-2.471.678A4.337,4.337,0,0,0,21.88,3.794,8.907,8.907,0,0,1,19.144,4.83,4.3,4.3,0,0,0,11.7,7.768a4.446,4.446,0,0,0,.111.983A12.194,12.194,0,0,1,2.935,4.266a4.226,4.226,0,0,0-.582,2.166,4.307,4.307,0,0,0,1.914,3.584,4.292,4.292,0,0,1-1.949-.539V9.53A4.306,4.306,0,0,0,5.77,13.753a4.342,4.342,0,0,1-1.935.075,4.318,4.318,0,0,0,4.028,2.989,8.629,8.629,0,0,1-5.339,1.842A9.277,9.277,0,0,1,1.5,18.6a12.254,12.254,0,0,0,6.613,1.932A12.159,12.159,0,0,0,20.361,8.3c0-.183,0-.367-.013-.551A8.69,8.69,0,0,0,22.5,5.516Z"/></svg>