<svg xmlns="http://www.w3.org/2000/svg" version="1.1" xmlns:xlink="http://www.w3.org/1999/xlink" xmlns:svgjs="http://svgjs.dev/svgjs" viewBox="0 0 1920 1080"><rect width="1920" height="1080" fill="#94a6ff"></rect><g transform="matrix(0.5750000000000001,0.9959292143521044,-0.9959292143521044,0.5750000000000001,921.3266206826925,-669.2378764663372)"><path d="M0,-1080C-19.154886131908,-994.1626387976587,-120.84382231819427,-717.5723909078007,-114.929316791448,-564.9758327859524C-109.01481126470173,-412.3792746641042,32.88062018647192,-323.20451718384555,35.48703316047761,-164.4206512689105C38.093446134483294,-5.6367853539754265,-113.78593610053748,234.54294151426555,-99.29083894741387,387.7273627036579C-84.79574179429027,540.9117838930503,99.24396552070381,606.2810528039495,122.45761607921929,754.6858758674437C145.6712666377348,903.0906989309378,55.22129200743188,1126.2076586176477,39.99106440367905,1278.1563010846232C24.760836799926217,1430.1049435515988,37.7414278573155,1519.403780850068,31.076250456702326,1666.3777306692973C24.41107305608915,1813.3516804885267,5.179375076117054,2077.7296217782164,0,2160L 1920 2160 L 1920 -1080 Z" fill="url(&quot;#SvgjsLinearGradient1168&quot;)"></path><path d="M160,-1080C170.59322228354276,-982.5274107359867,224.59394304755864,-703.2138795539099,223.55933370125655,-495.1644644159198C222.52472435495446,-287.11504927792964,169.6857407260971,-79.19370780939073,153.79234392218746,168.29649082794072C137.89894711827782,415.78668946527216,122.57184970975419,757.5403665668526,128.19895287779872,989.7767274080688C133.82605604584325,1222.013088249285,182.25478841008774,1366.6774437765828,187.55496293045462,1561.714655875238C192.8551374508215,1756.751867973893,164.59249382174244,2060.2857759792064,160,2160L 1920 2160 L 1920 -1080 Z" fill="url(&quot;#SvgjsLinearGradient1169&quot;)"></path><path d="M320,-1080C330.238739265876,-1012.4277455839691,360.95250201786126,-802.9855059592586,381.4324355952559,-674.5664735038144C401.9123691726506,-546.1474410483703,447.64591839436645,-431.1802683013643,442.87960146436785,-309.4858052673351C438.11328453436926,-187.79134223330584,359.00264268334735,-94.64176686147073,352.8345340152644,55.60030470036111C346.6664253471815,205.84237626219294,415.73207920079676,439.1143367097149,405.8709494558701,591.9666241036559C396.0098197109435,744.8189114975969,329.0008410391727,848.5637067453735,293.66775554570467,972.7140290640073C258.3346700522366,1096.864351382641,187.68764258033679,1226.874439329157,193.87243649506178,1336.8685580154588C200.05723040978677,1446.8626767017606,309.7552584498983,1495.4901675177284,330.7765190340547,1632.6787411818186C351.79777961821105,1769.8673148459088,321.79608650567576,2072.1131235303033,320,2160L 1920 2160 L 1920 -1080 Z" fill="url(&quot;#SvgjsLinearGradient1170&quot;)"></path><path d="M480,-1080C473.2483521410305,-968.781638956467,439.06803299043804,-635.1949541503857,439.49011284618325,-412.68983373880195C439.91219270192846,-190.18471332721816,480.03740137671565,46.49945149121791,482.5324791344714,255.0307224695028C485.0275568922271,463.5619934477877,455.0826435053913,612.3331687519646,454.46057939271765,838.4977921309073C453.838515280044,1064.66241550985,474.5435243572157,1391.768094764977,478.80009445842944,1612.018462743159C483.0566645596432,1832.2688307213411,479.8000157430716,2068.6697437905264,480,2160L 1920 2160 L 1920 -1080 Z" fill="url(&quot;#SvgjsLinearGradient1171&quot;)"></path><path d="M640,-1080C631.3084068771391,-989.0709673100966,569.6448283760609,-698.2752986296465,587.8504412628347,-534.4258038605801C606.0560541496085,-370.57630909151374,741.1350328268171,-277.39856392945217,749.233677320643,-96.9030313856016C757.3323218144689,83.59250115824898,656.8196477968281,342.48146493374645,636.4423082257902,548.5473914025233C616.0649686547522,754.6133178713002,634.1040340270822,946.7366002639145,626.9696398944152,1139.4925274270595C619.8352457617482,1332.2484545902046,591.4642167455237,1534.9983756192366,593.6359434297879,1705.0829543813934C595.807670114052,1875.1675331435501,632.2726572382979,2084.180492396899,640,2160L 1920 2160 L 1920 -1080 Z" fill="url(&quot;#SvgjsLinearGradient1172&quot;)"></path><path d="M800,-1080C809.1981438320614,-954.9143961077265,849.9015765907753,-557.47056216053,855.1888629923685,-329.4863766463586C860.4761493939617,-101.50219113218722,833.3865892179771,107.72746016375189,831.7237184095593,287.9051130850285C830.0608476011415,468.0827660063052,870.5918828780486,531.8901737445154,845.211638141862,751.5795408813012C819.8313934056753,971.268908018087,686.9775230160826,1371.3045727192934,679.442249992439,1606.0413159057432C671.9069769687953,1840.778059092193,779.9070416654065,2067.6735526509574,800,2160L 1920 2160 L 1920 -1080 Z" fill="url(&quot;#SvgjsLinearGradient1173&quot;)"></path><path d="M960,-1080C974.6159110882635,-985.1706092773229,1030.2876191404691,-736.6630924128847,1047.6954665295812,-511.0236556639373C1065.1033139186932,-285.38421891498984,1095.8567663203933,59.29111018324852,1064.447084334672,273.8366204936848C1033.0374023489505,488.38213080412106,875.4613601904357,564.2071511977563,859.2373746152529,776.2494061986803C843.01338904007,988.2916611996043,950.3093999861172,1315.465051532342,967.1031708835751,1546.0901504992285C983.896941781033,1776.715249466115,961.1838618139292,2057.6816917498713,960,2160L 1920 2160 L 1920 -1080 Z" fill="url(&quot;#SvgjsLinearGradient1174&quot;)"></path><path d="M1120,-1080C1136.0935455159056,-987.7168217595276,1236.9908110211995,-705.260540246938,1216.561273095434,-526.3009305571658C1196.1317351696684,-347.3413208673935,1011.1714441607267,-202.40042287512566,997.4227724454063,-6.242341861366469C983.6741007300859,189.91573915239272,1106.389614373959,467.4046262465645,1134.069242803512,650.6475555253892C1161.748871233065,833.8904848042139,1165.1651411716991,925.1117762625083,1163.500543022725,1093.215233811582C1161.8359448737508,1261.3186913606557,1131.3317444134548,1481.4708397884285,1124.0816539096672,1659.2683008198314C1116.8315634058797,1837.0657618512344,1120.6802756516113,2076.544716803305,1120,2160L 1920 2160 L 1920 -1080 Z" fill="url(&quot;#SvgjsLinearGradient1175&quot;)"></path><path d="M1280,-1080C1279.4991234592683,-961.7164382426893,1292.3221999862938,-592.7716480909122,1276.9947407556092,-370.2986294561357C1261.6672815249246,-147.82561082135922,1170.2308941842534,41.997218198781866,1188.0352446158922,254.83811180865882C1205.839595047531,467.6790054185358,1356.1519812785143,693.9276317431263,1383.8208433454424,906.7467322031259C1411.4897054123705,1119.5658326631255,1371.3518909083684,1322.8771699358444,1354.0484170174614,1531.7527145686568C1336.7449431265543,1740.628259201469,1292.3414028362436,2055.2921190947764,1280,2160L 1920 2160 L 1920 -1080 Z" fill="url(&quot;#SvgjsLinearGradient1176&quot;)"></path><path d="M1440,-1080C1448.7500489577747,-1012.6662637978785,1479.3631934211774,-797.700130534083,1492.5002937466475,-675.9975827872713C1505.6373940721176,-554.2950350404597,1537.3278758622898,-480.9433686391705,1518.822601952821,-349.7847135191301C1500.3173280433523,-218.6260583990897,1390.539539016221,-41.04737074236297,1381.4686502898348,110.95434793297113C1372.3977615634487,262.95606660830526,1455.6957938873911,440.96747117386167,1464.397269594504,562.2255985328745C1473.0987453016169,683.4837258918874,1439.4300000021715,699.4565758556536,1433.6775045325126,838.5031120870483C1427.9250090628536,977.549648318443,1432.5289478313111,1241.9710872442488,1429.8822967765504,1396.5048159212429C1427.2356457217898,1551.038544598237,1416.1113143333735,1638.4562868025537,1417.7975982039484,1765.7054841490133C1419.4838820745233,1892.9546814954729,1436.299599700658,2094.284247358169,1440,2160L 1920 2160 L 1920 -1080 Z" fill="url(&quot;#SvgjsLinearGradient1177&quot;)"></path><path d="M1600,-1080C1588.2313081605773,-996.6112927609058,1540.8881203057563,-740.7490397795449,1529.3878489634644,-579.667756565435C1517.8875776211726,-418.586473351325,1531.2028721216311,-260.17807485276285,1530.9983719462493,-113.51230071534059C1530.7938717708676,33.153473422081646,1528.0071369673276,171.8760278878144,1528.1608479111733,300.32688825909844C1528.314558855019,428.77774863038246,1518.6214685499758,511.0886663091019,1531.9206376093236,657.1928615123636C1545.2198066686715,803.2970567156253,1592.9987044775382,992.4736378133398,1607.9558622672596,1176.952059478669C1622.913020056981,1361.4304811439983,1622.9895613921954,1600.2220680841176,1621.6635843476522,1764.0633915043395C1620.337607303109,1927.9047149245614,1603.6105973912754,2094.010565250723,1600,2160L 1920 2160 L 1920 -1080 Z" fill="url(&quot;#SvgjsLinearGradient1178&quot;)"></path><path d="M1760,-1080C1748.7573309702466,-975.1779351195866,1693.120261469459,-621.5516850421793,1692.5439858214793,-451.06761071751947C1691.9677101734997,-280.5835363928597,1742.2447115818673,-236.33007386553803,1756.5423461121218,-57.09555405204134C1770.8399806423763,122.13896576145535,1783.3907798546422,434.6225426312552,1778.3297930030067,624.3395081634606C1773.268806151371,814.0564736956659,1740.2039100356074,896.6641894224995,1726.1764250023084,1081.206239141191C1712.1489399690095,1265.7482888598825,1688.5276203035974,1551.792846332475,1694.1648828032125,1731.5918064756097C1699.8021453028277,1911.3907666187445,1749.0274804672022,2088.5986344126018,1760,2160L 1920 2160 L 1920 -1080 Z" fill="url(&quot;#SvgjsLinearGradient1179&quot;)"></path></g><defs><linearGradient x1="0.1" y1="0" x2="0" y2="1" id="SvgjsLinearGradient1168"><stop stop-color="#94a6ff" offset="0"></stop><stop stop-color="#94b8ff" offset="0"></stop></linearGradient><linearGradient x1="0.1" y1="0" x2="0" y2="1" id="SvgjsLinearGradient1169"><stop stop-color="#778eff" offset="0"></stop><stop stop-color="#77a5ff" offset="0.08333333333333333"></stop></linearGradient><linearGradient x1="0.1" y1="0" x2="0" y2="1" id="SvgjsLinearGradient1170"><stop stop-color="#5b77ff" offset="0"></stop><stop stop-color="#5b92ff" offset="0.16666666666666666"></stop></linearGradient><linearGradient x1="0.1" y1="0" x2="0" y2="1" id="SvgjsLinearGradient1171"><stop stop-color="#3f5fff" offset="0"></stop><stop stop-color="#3f7fff" offset="0.25"></stop></linearGradient><linearGradient x1="0.1" y1="0" x2="0" y2="1" id="SvgjsLinearGradient1172"><stop stop-color="#2247ff" offset="0"></stop><stop stop-color="#226cff" offset="0.3333333333333333"></stop></linearGradient><linearGradient x1="0.1" y1="0" x2="0" y2="1" id="SvgjsLinearGradient1173"><stop stop-color="#0630ff" offset="0"></stop><stop stop-color="#0659ff" offset="0.4166666666666667"></stop></linearGradient><linearGradient x1="0.1" y1="0" x2="0" y2="1" id="SvgjsLinearGradient1174"><stop stop-color="#0027e8" offset="0"></stop><stop stop-color="#004ee8" offset="0.5"></stop></linearGradient><linearGradient x1="0.1" y1="0" x2="0" y2="1" id="SvgjsLinearGradient1175"><stop stop-color="#0022cc" offset="0"></stop><stop stop-color="#0044cc" offset="0.5833333333333334"></stop></linearGradient><linearGradient x1="0.1" y1="0" x2="0" y2="1" id="SvgjsLinearGradient1176"><stop stop-color="#001daf" offset="0"></stop><stop stop-color="#003aaf" offset="0.6666666666666666"></stop></linearGradient><linearGradient x1="0.1" y1="0" x2="0" y2="1" id="SvgjsLinearGradient1177"><stop stop-color="#001993" offset="0"></stop><stop stop-color="#003193" offset="0.75"></stop></linearGradient><linearGradient x1="0.1" y1="0" x2="0" y2="1" id="SvgjsLinearGradient1178"><stop stop-color="#001476" offset="0"></stop><stop stop-color="#002876" offset="0.8333333333333334"></stop></linearGradient><linearGradient x1="0.1" y1="0" x2="0" y2="1" id="SvgjsLinearGradient1179"><stop stop-color="#000f5a" offset="0"></stop><stop stop-color="#001e5a" offset="0.9166666666666666"></stop></linearGradient></defs></svg>