<svg width="348" height="114" viewBox="0 0 348 114" fill="none" xmlns="http://www.w3.org/2000/svg">
<path d="M347.537 35.1835H333.051L317.588 67.3659L301.801 35.1835H286.338L309.642 82.9107L294.069 114H309.099L347.537 35.1835ZM254.208 78.0914C245.823 78.0914 239.069 71.6329 239.069 62.4362C239.069 53.2396 245.823 46.781 254.208 46.781C262.703 46.781 269.348 53.2396 269.348 62.4362C269.348 71.6329 262.703 78.0914 254.208 78.0914ZM251.814 90.5726C258.569 90.5726 264.664 88.0554 269.238 83.7827V89.8052H283.064V35.1835H269.238V41.2003C264.883 36.8229 258.892 34.3057 252.358 34.3057C238.201 34.3057 225.352 46.13 225.352 62.4421C225.352 78.7483 237.987 90.5726 251.814 90.5726ZM218.164 8.79698L204.337 13.1744V89.8052H218.164V8.79698ZM170.144 48.9727H152.72V26.6438H170.144C177.332 26.6438 182.339 31.2421 182.339 37.8111C182.339 44.3802 177.332 48.9727 170.144 48.9727ZM137.69 13.1744V89.8052H152.72V61.8898H171.231C186.15 61.8898 197.253 51.4898 197.253 37.3693C197.253 23.3535 186.584 13.1744 171.774 13.1744H137.69Z" fill="#FF4747"/>
<path d="M51.3819 0.431641C23.3179 0.431641 0.568359 23.307 0.568359 51.5131C0.568359 79.7308 23.3179 102.594 51.3819 102.594C79.4459 102.594 102.195 79.7308 102.195 51.5131C102.195 23.307 79.4459 0.431641 51.3819 0.431641ZM31.1363 31.4165H60.3453L55.9099 38.5552H26.7009L31.1363 31.4165ZM79.9374 67.0927L75.4962 59.9656H62.5312L66.9782 52.8269H71.0724L66.1223 44.8801L52.3129 67.0869H15.4764L24.3473 52.821H17.8358L22.2655 45.6823H50.7458L46.3104 52.8327H32.7266L28.2854 59.9714H48.3749L66.1223 31.4165L88.3052 67.0985H79.9374V67.0927Z" fill="#FF4747"/>
</svg>
