<svg xmlns="http://www.w3.org/2000/svg" version="1.1" xmlns:xlink="http://www.w3.org/1999/xlink" xmlns:svgjs="http://svgjs.com/svgjs" width="1920" height="1080" preserveAspectRatio="none" viewBox="0 0 1920 1080"><g mask="url(&quot;#SvgjsMask1018&quot;)" fill="none"><rect width="1920" height="1080" x="0" y="0" fill="url(#SvgjsLinearGradient1019)"></rect><path d="M376.0491665413821 706.8789739854976L272.1877350161576 992.2359118532843 557.5446728839443 1096.0973433785089 661.4061044091687 810.7404055107221z" fill="rgba(28, 83, 142, 0.4)" class="triangle-float2"></path><path d="M213.4491032262117 70.13360542318183L-31.848712374394267-193.41921927697686-129.106986890296 105.91097105468565z" fill="rgba(28, 83, 142, 0.4)" class="triangle-float2"></path><path d="M1583.854520500698 121.21574660225329L1389.7134085727355-30.463913661095603 1238.0337483093867 163.6771982668669 1432.174860237349 315.3568585302158z" fill="rgba(28, 83, 142, 0.4)" class="triangle-float2"></path><path d="M1624.702,436.463C1694.074,437.584,1764.137,416.33,1802.603,358.589C1845.447,294.277,1861.73,208.175,1820.198,143.008C1780.726,81.074,1698.128,81.044,1624.702,79.446C1546.909,77.753,1454.652,67.885,1413.893,134.167C1372.172,202.013,1410.926,287.667,1456.485,352.998C1494.86,408.028,1557.622,435.379,1624.702,436.463" fill="rgba(28, 83, 142, 0.4)" class="triangle-float2"></path><path d="M695.371,832.301C755.212,831.914,817.36,816.043,848.814,765.134C881.676,711.945,876.401,644.22,844.968,590.174C813.714,536.437,757.521,502.677,695.371,501.304C630.678,499.875,566.763,527.576,533.87,583.301C500.473,639.879,502.703,712.019,538.454,767.14C571.486,818.069,634.669,832.693,695.371,832.301" fill="rgba(28, 83, 142, 0.4)" class="triangle-float2"></path><path d="M1009.681,1263.414C1099.029,1261.558,1162.124,1182.687,1200.933,1102.187C1234.354,1032.863,1227.741,954.702,1191.155,886.994C1152.358,815.194,1091.133,753.348,1009.681,748.247C919.662,742.609,828.563,783.053,784.048,861.498C740.012,939.098,760.477,1032.626,804.155,1110.428C848.964,1190.246,918.165,1265.315,1009.681,1263.414" fill="rgba(28, 83, 142, 0.4)" class="triangle-float2"></path><path d="M53.976855381562615 768.0322894050958L237.96106244598957 523.8770001603106-6.194226798795654 339.8927930958836-190.1784338632226 584.0480823406688z" fill="rgba(28, 83, 142, 0.4)" class="triangle-float3"></path><path d="M133.36 605.77 a333.74 333.74 0 1 0 667.48 0 a333.74 333.74 0 1 0 -667.48 0z" fill="rgba(28, 83, 142, 0.4)" class="triangle-float2"></path><path d="M1418.121,670.801C1518.582,671.088,1618.828,633.22,1670.681,547.175C1724.084,458.557,1722.583,344.945,1667.131,257.594C1615.14,175.695,1515.027,144.89,1418.121,149.328C1329.355,153.393,1253.121,203.571,1205.711,278.725C1154.31,360.206,1122.16,461.031,1168.051,545.738C1215.634,633.568,1318.23,670.515,1418.121,670.801" fill="rgba(28, 83, 142, 0.4)" class="triangle-float2"></path><path d="M1543.81 642.63 a251.49 251.49 0 1 0 502.98 0 a251.49 251.49 0 1 0 -502.98 0z" fill="rgba(28, 83, 142, 0.4)" class="triangle-float2"></path><path d="M1543.437,658.608C1584.395,657.52,1610.432,618.895,1629.206,582.477C1646.062,549.78,1652.243,512.551,1635.659,479.715C1617.294,443.351,1584.142,414.299,1543.437,412.653C1500.089,410.9,1457.9,433.501,1437.328,471.696C1417.644,508.241,1428.902,551.156,1449.395,587.254C1470.216,623.93,1501.278,659.728,1543.437,658.608" fill="rgba(28, 83, 142, 0.4)" class="triangle-float1"></path><path d="M998.09 990.83 a259.31 259.31 0 1 0 518.62 0 a259.31 259.31 0 1 0 -518.62 0z" fill="rgba(28, 83, 142, 0.4)" class="triangle-float1"></path><path d="M802.05,716.157C860.605,714.681,912.698,681.611,942.133,630.97C971.726,580.057,976.321,517.475,947.324,466.22C917.903,414.215,861.795,384.119,802.05,383.358C740.896,382.579,681.671,409.982,650.223,462.436C617.905,516.343,616.898,584.424,649.172,638.357C680.641,690.945,740.785,717.702,802.05,716.157" fill="rgba(28, 83, 142, 0.4)" class="triangle-float3"></path><path d="M609.4723454100221 1193.3013446005227L810.1642613061504 1182.7835269683476 799.6464436739752 982.0916110722194 598.954527777847 992.6094287043945z" fill="rgba(28, 83, 142, 0.4)" class="triangle-float1"></path><path d="M1017.7192729703963 641.7509598408791L1140.7473052838795 594.5249229345579 1008.3942337676561 433.59589291749387z" fill="rgba(28, 83, 142, 0.4)" class="triangle-float3"></path><path d="M1197.0530065935593 448.68208418738396L1225.293585234725 343.2868098634084 1053.0803844281788 353.6235790636474z" fill="rgba(28, 83, 142, 0.4)" class="triangle-float2"></path><path d="M893.68 854.35 a248.88 248.88 0 1 0 497.76 0 a248.88 248.88 0 1 0 -497.76 0z" fill="rgba(28, 83, 142, 0.4)" class="triangle-float3"></path><path d="M554.294,911.119C590.588,911.235,620.575,886.627,639.347,855.565C658.913,823.189,671.846,782.227,651.439,750.374C631.978,719.997,590.277,720.226,554.294,722.809C523.801,724.998,495.043,736.984,478.633,762.777C460.868,790.7,455.14,825.543,470.177,855.025C486.589,887.202,518.173,911.004,554.294,911.119" fill="rgba(28, 83, 142, 0.4)" class="triangle-float2"></path><path d="M970.0657215333717 435.57363117052716L1233.8548859101545 449.3982354744435 1247.679490214071 185.60907109766075 983.8903258372881 171.7844667937444z" fill="rgba(28, 83, 142, 0.4)" class="triangle-float1"></path><path d="M432.01 375.27 a321.16 321.16 0 1 0 642.32 0 a321.16 321.16 0 1 0 -642.32 0z" fill="rgba(28, 83, 142, 0.4)" class="triangle-float1"></path></g><defs><mask id="SvgjsMask1018"><rect width="1920" height="1080" fill="#ffffff"></rect></mask><linearGradient x1="89.06%" y1="119.44%" x2="10.94%" y2="-19.44%" gradientUnits="userSpaceOnUse" id="SvgjsLinearGradient1019"><stop stop-color="#0e2a47" offset="0"></stop><stop stop-color="rgba(0, 61, 140, 1)" offset="1"></stop></linearGradient><style>
            @keyframes float1 {
                0%{transform: translate(0, 0)}
                50%{transform: translate(-10px, 0)}
                100%{transform: translate(0, 0)}
            }

            .triangle-float1 {
                animation: float1 5s infinite;
            }

            @keyframes float2 {
                0%{transform: translate(0, 0)}
                50%{transform: translate(-5px, -5px)}
                100%{transform: translate(0, 0)}
            }

            .triangle-float2 {
                animation: float2 4s infinite;
            }

            @keyframes float3 {
                0%{transform: translate(0, 0)}
                50%{transform: translate(0, -10px)}
                100%{transform: translate(0, 0)}
            }

            .triangle-float3 {
                animation: float3 6s infinite;
            }
        </style></defs></svg>