<svg xmlns="http://www.w3.org/2000/svg" version="1.1" xmlns:xlink="http://www.w3.org/1999/xlink" xmlns:svgjs="http://svgjs.com/svgjs" width="1920" height="1080" preserveAspectRatio="none" viewBox="0 0 1920 1080"><g mask="url(&quot;#SvgjsMask29752&quot;)" fill="none"><rect width="1920" height="1080" x="0" y="0" fill="url(#SvgjsLinearGradient29753)"></rect><path d="M1481.4 83.47L1489.24 93.59 1481.09 103.47 1488.93 113.59 1480.78 123.47 1488.62 133.59 1480.47 143.46M1473.4 83.35L1481.24 93.47 1473.09 103.35 1480.93 113.47 1472.78 123.34 1480.62 133.47 1472.47 143.34" stroke="#d3b714" stroke-width="1" stroke-dasharray="4, 4"></path><rect width="378" height="378" clip-path="url(&quot;#SvgjsClipPath29754&quot;)" x="1463.52" y="670.63" fill="url(#SvgjsPattern29755)" transform="rotate(248.03, 1652.52, 859.63)"></rect><rect width="492.48" height="492.48" clip-path="url(&quot;#SvgjsClipPath29756&quot;)" x="-85.12" y="89.73" fill="url(#SvgjsPattern29757)" transform="rotate(27.75, 161.12, 335.97)"></rect><rect width="588" height="588" clip-path="url(&quot;#SvgjsClipPath29758&quot;)" x="1310.29" y="-41.24" fill="url(#SvgjsPattern29759)" transform="rotate(3.44, 1604.29, 252.76)"></rect><circle r="148.68967770326446" cx="764.65" cy="578.49" stroke="#037b0b" stroke-width="1"></circle><circle r="116.81158081916682" cx="1383.4" cy="1033.11" fill="#037b0b"></circle><path d="M1910.47 647.89a5.6 5.6 0 1 0-7.46 8.36 5.6 5.6 0 1 0 7.46-8.36zM1899.82 659.83a5.6 5.6 0 1 0-7.46 8.36 5.6 5.6 0 1 0 7.46-8.36zM1889.16 671.77a5.6 5.6 0 1 0-7.46 8.35 5.6 5.6 0 1 0 7.46-8.35zM1878.51 683.7a5.6 5.6 0 1 0-7.46 8.36 5.6 5.6 0 1 0 7.46-8.36z" stroke="#d3b714" stroke-width="1.22"></path><path d="M1429.97 936.13 L1311.37 833.5L1464.1946511101362 791.2903488898639z" stroke="#037b0b" stroke-width="2.75" stroke-dasharray="2, 2"></path></g><defs><mask id="SvgjsMask29752"><rect width="1920" height="1080" fill="#ffffff"></rect></mask><linearGradient x1="50%" y1="0%" x2="50%" y2="100%" gradientUnits="userSpaceOnUse" id="SvgjsLinearGradient29753"><stop stop-color="rgba(14, 42, 71, 1)" offset="0"></stop><stop stop-color="rgba(0, 64, 146, 1)" offset="1"></stop></linearGradient><pattern x="0" y="0" width="7.56" height="7.56" patternUnits="userSpaceOnUse" id="SvgjsPattern29755"><path d="M0 7.56L3.78 0L7.56 7.56" stroke="#e73635" fill="none"></path></pattern><clipPath id="SvgjsClipPath29754"><circle r="94.5" cx="1652.52" cy="859.63"></circle></clipPath><pattern x="0" y="0" width="492.48" height="13.68" patternUnits="userSpaceOnUse" id="SvgjsPattern29757"><rect width="492.48" height="6.84" x="0" y="0" fill="#e73635"></rect><rect width="492.48" height="6.84" x="0" y="6.84" fill="rgba(0, 0, 0, 0)"></rect></pattern><clipPath id="SvgjsClipPath29756"><circle r="123.12" cx="161.12" cy="335.97"></circle></clipPath><pattern x="0" y="0" width="588" height="6" patternUnits="userSpaceOnUse" id="SvgjsPattern29759"><rect width="588" height="3" x="0" y="0" fill="#d3b714"></rect><rect width="588" height="3" x="0" y="3" fill="rgba(0, 0, 0, 0)"></rect></pattern><clipPath id="SvgjsClipPath29758"><circle r="147" cx="1604.29" cy="252.76"></circle></clipPath></defs></svg>