<svg xmlns="http://www.w3.org/2000/svg" version="1.1" xmlns:xlink="http://www.w3.org/1999/xlink" xmlns:svgjs="http://svgjs.com/svgjs" width="1920" height="1080" preserveAspectRatio="none" viewBox="0 0 1920 1080"><g mask="url(&quot;#SvgjsMask1039&quot;)" fill="none"><rect width="1920" height="1080" x="0" y="0" fill="url(#SvgjsLinearGradient1040)"></rect><path d="M406.4754969120687 384.80388085942405L515.0156391204449 129.09933005097423 259.3110883119951 20.55918784259802 150.77094610361888 276.26373865104784z" fill="rgba(0, 31, 255, 0.41)" class="triangle-float2"></path><path d="M1173.66 1032.66 a315.66 315.66 0 1 0 631.32 0 a315.66 315.66 0 1 0 -631.32 0z" fill="rgba(0, 31, 255, 0.41)" class="triangle-float2"></path><path d="M911.26 693.59 a209.02 209.02 0 1 0 418.04 0 a209.02 209.02 0 1 0 -418.04 0z" fill="rgba(0, 31, 255, 0.41)" class="triangle-float1"></path><path d="M400.74 924.79 a194.85 194.85 0 1 0 389.7 0 a194.85 194.85 0 1 0 -389.7 0z" fill="rgba(0, 31, 255, 0.41)" class="triangle-float3"></path><path d="M1497.5147473168686 176.1196261173732L1437.3473656861831 459.1849013455766 1780.5800225450719 236.28700774805858z" fill="rgba(0, 31, 255, 0.41)" class="triangle-float1"></path><path d="M770.8028011657941 456.57413688806236L867.9641546300121 710.4109153095067 1020.6860239342309 528.4040788985005z" fill="rgba(0, 31, 255, 0.41)" class="triangle-float2"></path><path d="M1139.484183903355 837.8244180699669L1366.5776397927275 633.3485519536026 1162.101773676363 406.2550960642302 935.0083177869907 610.7309621805944z" fill="rgba(0, 31, 255, 0.41)" class="triangle-float3"></path><path d="M1502.9526920475441 870.4152217487956L1613.0426846395028 1061.0966823229492 1803.7241452136564 951.0066897309904 1693.6341526216975 760.3252291568369z" fill="rgba(0, 31, 255, 0.41)" class="triangle-float2"></path><path d="M137.72 39.23 a324.55 324.55 0 1 0 649.1 0 a324.55 324.55 0 1 0 -649.1 0z" fill="rgba(0, 31, 255, 0.41)" class="triangle-float2"></path><path d="M1186.1463525309534 817.9732957957285L1036.5006917623737 696.7926290684162 915.3200250350612 846.438289836996 1064.965685803641 967.6189565643083z" fill="rgba(0, 31, 255, 0.41)" class="triangle-float3"></path><path d="M204.18,947.842C258.139,947.54,303.439,908.744,327.287,860.34C348.577,817.128,335.942,768.78,313.369,726.224C288.81,679.923,256.489,631.524,204.18,628.253C147.52,624.71,95.349,660.907,68.467,710.91C42.894,758.479,51.817,814.869,78.66,861.733C105.69,908.922,149.799,948.147,204.18,947.842" fill="rgba(0, 31, 255, 0.41)" class="triangle-float2"></path><path d="M852.8620179962292 829.6898713237841L762.5261213191316 895.3227420651937 906.1433757697946 998.0101517101352z" fill="rgba(0, 31, 255, 0.41)" class="triangle-float3"></path><path d="M153.19245072196 965.885694435105L-126.86419160883028 995.0510122373703 14.314484305028685 1196.675056838239z" fill="rgba(0, 31, 255, 0.41)" class="triangle-float2"></path><path d="M1320.73,658.523C1395.226,660.871,1460.476,611.219,1496.321,545.872C1530.79,483.034,1529.38,406.778,1492.544,345.298C1456.714,285.497,1390.43,254.125,1320.73,252.804C1248.385,251.432,1172.462,275.35,1137.249,338.562C1102.731,400.525,1128.035,473.846,1163.319,535.376C1198.839,597.317,1249.362,656.273,1320.73,658.523" fill="rgba(0, 31, 255, 0.41)" class="triangle-float3"></path><path d="M906.1085859889746 1087.9834520505199L1049.9990402719714 1181.4270056505372 1143.4425938719887 1037.5365513675404 999.5521395889918 944.092997767523z" fill="rgba(0, 31, 255, 0.41)" class="triangle-float1"></path><path d="M1457.6206560212925 445.77059862983185L1159.9607463211694 466.5850071585547 1180.7751548498923 764.2449168586777 1478.4350645500153 743.4305083299549z" fill="rgba(0, 31, 255, 0.41)" class="triangle-float2"></path><path d="M1369.82 152.28 a332.48 332.48 0 1 0 664.96 0 a332.48 332.48 0 1 0 -664.96 0z" fill="rgba(0, 31, 255, 0.41)" class="triangle-float1"></path><path d="M1972.7221137926865 808.086050400686L1730.111490438081 604.5115658241466 1526.5370058615417 847.122189178752 1769.1476292161472 1050.6966737552914z" fill="rgba(0, 31, 255, 0.41)" class="triangle-float1"></path><path d="M1006.44 51.4 a251.29 251.29 0 1 0 502.58 0 a251.29 251.29 0 1 0 -502.58 0z" fill="rgba(0, 31, 255, 0.41)" class="triangle-float3"></path><path d="M1692.939,581.068C1759.995,580.373,1837.096,584.451,1872.911,527.756C1910.232,468.676,1885.813,393.156,1849.273,333.589C1814.683,277.201,1759.086,235.178,1692.939,234.369C1625.453,233.543,1565.717,272.519,1529.835,329.681C1491.233,391.176,1466.869,470.644,1506.388,531.554C1543.92,589.401,1623.987,581.782,1692.939,581.068" fill="rgba(0, 31, 255, 0.41)" class="triangle-float2"></path></g><defs><mask id="SvgjsMask1039"><rect width="1920" height="1080" fill="#ffffff"></rect></mask><linearGradient x1="89.06%" y1="119.44%" x2="10.94%" y2="-19.44%" gradientUnits="userSpaceOnUse" id="SvgjsLinearGradient1040"><stop stop-color="#0e2a47" offset="0"></stop><stop stop-color="rgba(43, 0, 255, 1)" offset="1"></stop></linearGradient><style>
            @keyframes float1 {
                0%{transform: translate(0, 0)}
                50%{transform: translate(-10px, 0)}
                100%{transform: translate(0, 0)}
            }

            .triangle-float1 {
                animation: float1 5s infinite;
            }

            @keyframes float2 {
                0%{transform: translate(0, 0)}
                50%{transform: translate(-5px, -5px)}
                100%{transform: translate(0, 0)}
            }

            .triangle-float2 {
                animation: float2 4s infinite;
            }

            @keyframes float3 {
                0%{transform: translate(0, 0)}
                50%{transform: translate(0, -10px)}
                100%{transform: translate(0, 0)}
            }

            .triangle-float3 {
                animation: float3 6s infinite;
            }
        </style></defs></svg>