<?xml version="1.0" encoding="UTF-8" standalone="no"?>
<svg
   xmlns:dc="http://purl.org/dc/elements/1.1/"
   xmlns:cc="http://creativecommons.org/ns#"
   xmlns:rdf="http://www.w3.org/1999/02/22-rdf-syntax-ns#"
   xmlns:svg="http://www.w3.org/2000/svg"
   xmlns="http://www.w3.org/2000/svg"
   xmlns:sodipodi="http://sodipodi.sourceforge.net/DTD/sodipodi-0.dtd"
   xmlns:inkscape="http://www.inkscape.org/namespaces/inkscape"
   viewBox="0 0 24 24"
   version="1.1"
   id="svg22"
   sodipodi:docname="chevron-down.svg"
   inkscape:version="1.0.2 (e86c870879, 2021-01-15, custom)">
  <metadata
     id="metadata28">
    <rdf:RDF>
      <cc:Work
         rdf:about="">
        <dc:format>image/svg+xml</dc:format>
        <dc:type
           rdf:resource="http://purl.org/dc/dcmitype/StillImage" />
      </cc:Work>
    </rdf:RDF>
  </metadata>
  <defs
     id="defs26" />
  <sodipodi:namedview
     pagecolor="#ffffff"
     bordercolor="#666666"
     borderopacity="1"
     objecttolerance="10"
     gridtolerance="10"
     guidetolerance="10"
     inkscape:pageopacity="0"
     inkscape:pageshadow="2"
     inkscape:window-width="1858"
     inkscape:window-height="1057"
     id="namedview24"
     showgrid="false"
     inkscape:zoom="35.458333"
     inkscape:cx="12"
     inkscape:cy="12"
     inkscape:window-x="54"
     inkscape:window-y="-8"
     inkscape:window-maximized="1"
     inkscape:current-layer="svg22" />
  <polyline
     points="5 9 12 16 19 9"
     fill="none"
     stroke="#000"
     stroke-miterlimit="10"
     id="polyline20" />
  <path
     style="fill:#a0a0a0;stroke:none;stroke-width:0.0282021"
     d="M 8.3339391,13.01549 4.6679321,9.3494019 5.0058735,9.0105778 5.3438148,8.6717537 8.6578511,11.985701 C 10.480571,13.808371 11.984538,15.299647 12,15.299647 c 0.01546,0 1.519429,-1.491276 3.342149,-3.313946 l 3.314036,-3.3139473 0.337955,0.3388377 0.337955,0.3388377 -3.666075,3.6660749 -3.666074,3.666074 z"
     id="path30" />
  <path
     style="fill:#a0a0a0;stroke:none;stroke-width:0.0282021"
     d="M 8.3480497,13.001399 4.6961536,9.349421 5.0183966,9.0262613 5.3406395,8.7031016 8.6494141,12.001375 c 1.8198259,1.81405 3.3279329,3.298272 3.3513489,3.298272 0.02341,0 1.531116,-1.484286 3.350446,-3.298413 l 3.307872,-3.2984131 0.322396,0.3233137 0.322396,0.3233137 -3.651963,3.6519637 -3.651964,3.651964 z"
     id="path32" />
  <path
     style="fill:#a0a0a0;stroke:none;stroke-width:0.0282021"
     d="M 8.3478943,13.001243 4.695843,9.3491103 5.0200719,9.0269634 5.3443008,8.7048165 8.6551409,12.002232 c 1.8209621,1.813578 3.3264991,3.297415 3.3456391,3.297415 0.01914,0 1.524326,-1.483876 3.344859,-3.297504 l 3.31006,-3.2975036 0.324243,0.3222491 0.324242,0.3222491 -3.652119,3.6521194 -3.652119,3.652119 z"
     id="path34" />
  <path
     style="fill:#a0a0a0;stroke:none;stroke-width:0.0282021"
     d="M 8.3478943,13.001243 4.695843,9.3491103 5.0200719,9.0250521 5.3443008,8.7009939 7.5017626,10.851093 c 1.186604,1.182555 2.6801724,2.66868 3.3190404,3.3025 l 1.161578,1.1524 0.07931,-0.05737 c 0.04362,-0.03155 1.54512,-1.516755 3.336659,-3.300445 l 3.257344,-3.2430713 0.324243,0.3220164 0.324242,0.3220165 -3.652119,3.6521194 -3.652119,3.652119 z"
     id="path36" />
  <path
     style="fill:#ffd5d5;stroke:none;stroke-width:0.0282021"
     d="M 8.3478943,13.001243 4.695843,9.3491103 5.0200719,9.0250847 5.3443008,8.7010591 7.2620447,10.611809 c 1.0547591,1.050913 2.5486011,2.53721 3.3196493,3.302883 l 1.401905,1.392133 0.13511,-0.114976 c 0.07431,-0.06324 1.575533,-1.548622 3.33605,-3.300857 l 3.20094,-3.1858802 0.324243,0.3220129 0.324242,0.3220129 -3.652119,3.6521194 -3.652119,3.652119 z"
     id="path38" />
  <path
     style="fill:#ffffff;stroke-width:0.0282021"
     d="M 8.3619988,12.987146 4.724052,9.3491169 5.0347066,9.0384622 5.3453612,8.7278076 l 3.3199183,3.3020584 3.3199185,3.302058 0.472736,-0.452931 c 0.260004,-0.249112 1.760867,-1.734102 3.33525,-3.299979 l 2.862515,-2.8470481 0.310138,0.3085892 0.310138,0.3085891 -3.638015,3.6380148 -3.638015,3.638015 z"
     id="path40" />
</svg>
