<?xml version="1.0" encoding="UTF-8" standalone="no"?>
<svg
   xmlns:dc="http://purl.org/dc/elements/1.1/"
   xmlns:cc="http://creativecommons.org/ns#"
   xmlns:rdf="http://www.w3.org/1999/02/22-rdf-syntax-ns#"
   xmlns:svg="http://www.w3.org/2000/svg"
   xmlns="http://www.w3.org/2000/svg"
   xmlns:sodipodi="http://sodipodi.sourceforge.net/DTD/sodipodi-0.dtd"
   xmlns:inkscape="http://www.inkscape.org/namespaces/inkscape"
   viewBox="0 0 24 24"
   version="1.1"
   id="svg34"
   sodipodi:docname="article-ecrire.svg"
   inkscape:version="1.0.2 (e86c870879, 2021-01-15)">
  <metadata
     id="metadata40">
    <rdf:RDF>
      <cc:Work
         rdf:about="">
        <dc:format>image/svg+xml</dc:format>
        <dc:type
           rdf:resource="http://purl.org/dc/dcmitype/StillImage" />
      </cc:Work>
    </rdf:RDF>
  </metadata>
  <defs
     id="defs38" />
  <sodipodi:namedview
     pagecolor="#ffffff"
     bordercolor="#666666"
     borderopacity="1"
     objecttolerance="10"
     gridtolerance="10"
     guidetolerance="10"
     inkscape:pageopacity="0"
     inkscape:pageshadow="2"
     inkscape:window-width="1858"
     inkscape:window-height="1057"
     id="namedview36"
     showgrid="false"
     inkscape:zoom="36.125"
     inkscape:cx="12"
     inkscape:cy="12"
     inkscape:window-x="1974"
     inkscape:window-y="-8"
     inkscape:window-maximized="1"
     inkscape:current-layer="svg34" />
  <path
     d="M18,16.5V22H2V8L8,2H18V3.5"
     fill="none"
     stroke="#000"
     stroke-miterlimit="10"
     id="path26" />
  <polyline
     points="8 2 8 8 2 8"
     fill="none"
     stroke="#000"
     stroke-miterlimit="10"
     id="polyline28" />
  <polygon
     points="8.5 18.5 9 15.5 19.5 5 20.5 5 22 6.5 22 7.5 11.5 18 8.5 18.5"
     fill="none"
     stroke="#000"
     stroke-miterlimit="10"
     id="polygon30" />
  <line
     x1="17.5"
     y1="6.5"
     x2="20.5"
     y2="9.5"
     fill="none"
     stroke="#000"
     stroke-miterlimit="10"
     id="line32" />
  <path
     style="fill:#ffffff;stroke-width:0.0276817"
     d="M 1.5224913,15.148744 V 7.8061373 L 4.6713257,4.657394 7.82016,1.5086505 h 5.335595 5.335594 v 0.982699 0.9826989 H 18.00692 17.522491 V 2.9757785 2.4775087 H 13.010381 8.4982699 V 5.4809689 8.4844291 H 5.4948097 2.4913495 v 6.5190309 6.519031 h 7.5155705 7.515571 v -2.50519 -2.50519 h 0.484429 0.484429 v 2.989619 2.989619 H 10.00692 1.5224913 Z M 7.5017301,5.3564014 c 0,-1.1875433 -0.00314,-2.1591696 -0.00699,-2.1591696 -0.00384,0 -0.9785534,0.9716263 -2.1660236,2.1591696 L 3.1696833,7.5155709 h 2.1660233 2.1660235 z"
     id="path42" />
  <path
     style="fill:#ffffff;stroke-width:0.0276817"
     d="m 7.9174612,19.065744 c 2.784e-4,-0.01142 0.1429742,-0.87348 0.3171018,-1.915691 l 0.3165956,-1.89493 5.3645324,-5.3645857 5.364532,-5.3645857 h 0.719912 0.719913 l 0.87873,0.8790524 0.878731,0.8790525 V 6.9898058 7.6955552 L 17.096246,13.076765 11.714982,18.457975 9.83673,18.77172 C 7.7676831,19.117336 7.9167601,19.094498 7.9174612,19.065744 Z M 10.224331,17.719791 11.272192,17.544349 15.421503,13.395106 19.570814,9.2458644 18.664396,8.3391336 17.757977,7.432403 13.6051,11.585212 9.4522221,15.73802 9.2792662,16.782505 c -0.095126,0.574467 -0.1727407,1.060056 -0.1724778,1.079087 2.63e-4,0.01903 0.016049,0.03439 0.03508,0.03412 0.019031,-2.76e-4 0.5061393,-0.07943 1.0824626,-0.175922 z M 21.508651,7.0039167 V 6.6994235 L 20.90681,6.0971166 20.30497,5.4948097 h -0.304513 -0.304513 l -0.630015,0.6295674 -0.630014,0.6295675 0.906421,0.9067328 0.906421,0.906733 0.629947,-0.6295004 0.629947,-0.6295 z"
     id="path44" />
</svg>
