<?xml version="1.0" encoding="UTF-8" standalone="no"?>
<svg
   xmlns:dc="http://purl.org/dc/elements/1.1/"
   xmlns:cc="http://creativecommons.org/ns#"
   xmlns:rdf="http://www.w3.org/1999/02/22-rdf-syntax-ns#"
   xmlns:svg="http://www.w3.org/2000/svg"
   xmlns="http://www.w3.org/2000/svg"
   xmlns:sodipodi="http://sodipodi.sourceforge.net/DTD/sodipodi-0.dtd"
   xmlns:inkscape="http://www.inkscape.org/namespaces/inkscape"
   viewBox="0 0 24 24"
   version="1.1"
   id="svg30"
   sodipodi:docname="edit-2.svg"
   inkscape:version="1.0.2 (e86c870879, 2021-01-15)">
  <metadata
     id="metadata36">
    <rdf:RDF>
      <cc:Work
         rdf:about="">
        <dc:format>image/svg+xml</dc:format>
        <dc:type
           rdf:resource="http://purl.org/dc/dcmitype/StillImage" />
      </cc:Work>
    </rdf:RDF>
  </metadata>
  <defs
     id="defs34" />
  <sodipodi:namedview
     pagecolor="#ffffff"
     bordercolor="#666666"
     borderopacity="1"
     objecttolerance="10"
     gridtolerance="10"
     guidetolerance="10"
     inkscape:pageopacity="0"
     inkscape:pageshadow="2"
     inkscape:window-width="1858"
     inkscape:window-height="1057"
     id="namedview32"
     showgrid="false"
     inkscape:zoom="36.125"
     inkscape:cx="12"
     inkscape:cy="12"
     inkscape:window-x="1974"
     inkscape:window-y="-8"
     inkscape:window-maximized="1"
     inkscape:current-layer="svg30" />
  <polygon
     points="7.5 16.5 8 13.5 18.5 3 19.5 3 21 4.5 21 5.5 10.5 16 7.5 16.5"
     fill="none"
     stroke="#000"
     stroke-miterlimit="10"
     id="polygon24" />
  <line
     x1="16.5"
     y1="4.5"
     x2="19.5"
     y2="7.5"
     fill="none"
     stroke="#000"
     stroke-miterlimit="10"
     id="line26" />
  <polyline
     points="16.5 15.5 16.5 21.5 2.5 21.5 2.5 7.5 8.5 7.5"
     fill="none"
     stroke="#000"
     id="polyline28" />
  <path
     style="fill:#ffffff;stroke-width:0.0276817"
     d="M 2.0207612,14.50519 V 7.017301 H 5.2595156 8.4982699 V 7.5017301 7.9861592 H 5.7439446 2.9896194 V 14.50519 21.024221 H 9.4948097 16 v -2.754325 -2.754325 h 0.49827 0.49827 v 3.238754 3.238755 H 9.5086505 2.0207612 Z"
     id="path38" />
  <path
     style="fill:#ffffff;stroke-width:0.0276817"
     d="m 6.920935,17.059351 c 2.859e-4,-0.01932 0.1417053,-0.880343 0.3142653,-1.913382 L 7.5489458,13.267717 12.930156,7.8864534 18.311365,2.5051903 h 0.692228 0.692228 l 0.892574,0.8928909 0.892574,0.8928909 v 0.7057517 0.7057518 l -5.377163,5.3762794 -5.377162,5.376279 -1.8408309,0.305386 c -1.0124567,0.167962 -1.8688581,0.311838 -1.9031141,0.319723 -0.039528,0.0091 -0.062094,0.0015 -0.061764,-0.02079 z m 2.295904,-1.335505 1.06459,-0.178355 4.132642,-4.132572 c 2.272953,-2.2729151 4.132642,-4.1451169 4.132642,-4.160449 0,-0.015332 -0.404873,-0.4326045 -0.899717,-0.927273 L 16.74728,5.4257999 12.601511,9.5714992 8.4557429,13.717199 8.2741788,14.810156 c -0.1138306,0.685224 -0.1704406,1.092788 -0.1517469,1.092501 0.0164,-2.49e-4 0.5088827,-0.08072 1.0944071,-0.178811 z M 19.895968,5.9310264 20.512111,5.3153403 V 5.0108371 4.7063338 L 19.896424,4.0901911 19.280738,3.4740484 H 18.989624 18.69851 l -0.636259,0.6367112 -0.63626,0.6367113 0.899301,0.8996209 c 0.494616,0.4947917 0.911729,0.899621 0.926918,0.899621 0.01519,0 0.30488,-0.2770588 0.643758,-0.6156864 z"
     id="path40" />
</svg>
