<svg xmlns="http://www.w3.org/2000/svg" version="1.1" xmlns:xlink="http://www.w3.org/1999/xlink" xmlns:svgjs="http://svgjs.com/svgjs" width="2000" height="1500" preserveAspectRatio="none" viewBox="0 0 2000 1500"><g mask="url(&quot;#SvgjsMask15856&quot;)" fill="none"><rect width="2000" height="1500" x="0" y="0" fill="url(#SvgjsLinearGradient15857)"></rect><path d="M1730.9 598.8199999999999 L1714.18 521.54L1757.2661551407796 525.4538448592203z" fill="#e73635"></path><rect width="290.64" height="290.64" clip-path="url(&quot;#SvgjsClipPath15858&quot;)" x="1559.08" y="672.44" fill="url(#SvgjsPattern15859)" transform="rotate(159.47, 1704.4, 817.76)"></rect><path d="M74.23 282.39L86.26 278.01 93.18 288.79 105.21 284.4 112.13 295.18 124.16 290.8 131.08 301.58M71.67 289.97L83.71 285.59 90.62 296.37 102.66 291.98 109.57 302.76 121.6 298.38 128.52 309.16" stroke="rgba(220, 0, 255, 1)" stroke-width="1.26" stroke-dasharray="3, 3"></path><path d="M1888.32 1322.92L1895.92 1312.61 1907.64 1317.76 1915.24 1307.45 1926.96 1312.6 1934.56 1302.29 1946.29 1307.43" stroke="#d3b714" stroke-width="1.14" stroke-dasharray="3, 3"></path><rect width="798.72" height="798.72" clip-path="url(&quot;#SvgjsClipPath15860&quot;)" x="1075.09" y="654.45" fill="url(#SvgjsPattern15861)" transform="rotate(183.52, 1474.45, 1053.81)"></rect><rect width="792" height="792" clip-path="url(&quot;#SvgjsClipPath15862&quot;)" x="169.76" y="176.71" fill="url(#SvgjsPattern15863)" transform="rotate(355.78, 565.76, 572.71)"></rect></g><defs><mask id="SvgjsMask15856"><rect width="2000" height="1500" fill="#ffffff"></rect></mask><linearGradient x1="50%" y1="0%" x2="50%" y2="100%" gradientUnits="userSpaceOnUse" id="SvgjsLinearGradient15857"><stop stop-color="rgba(14, 42, 71, 1)" offset="0"></stop><stop stop-color="rgba(0, 64, 146, 1)" offset="1"></stop></linearGradient><pattern x="0" y="0" width="10.38" height="10.38" patternUnits="userSpaceOnUse" id="SvgjsPattern15859"><path d="M5.19 1L5.19 9.38M1 5.19L9.38 5.19" stroke="rgba(220, 0, 255, 1)" fill="none" stroke-width="3.18"></path></pattern><clipPath id="SvgjsClipPath15858"><circle r="72.66" cx="1704.4" cy="817.76"></circle></clipPath><pattern x="0" y="0" width="798.72" height="8.32" patternUnits="userSpaceOnUse" id="SvgjsPattern15861"><rect width="798.72" height="4.16" x="0" y="0" fill="#d3b714"></rect><rect width="798.72" height="4.16" x="0" y="4.16" fill="rgba(0, 0, 0, 0)"></rect></pattern><clipPath id="SvgjsClipPath15860"><circle r="199.68" cx="1474.45" cy="1053.81"></circle></clipPath><pattern x="0" y="0" width="792" height="6" patternUnits="userSpaceOnUse" id="SvgjsPattern15863"><rect width="792" height="3" x="0" y="0" fill="rgba(220, 0, 255, 1)"></rect><rect width="792" height="3" x="0" y="3" fill="rgba(0, 0, 0, 0)"></rect></pattern><clipPath id="SvgjsClipPath15862"><circle r="198" cx="565.76" cy="572.71"></circle></clipPath></defs></svg>